<svg xmlns="http://www.w3.org/2000/svg" width="180" height="85.831" viewBox="0 0 180 85.831"><g transform="translate(-618.128 -12.5)"><path d="M2.272,3.8v-.92H3.814v-17.1h-.8a1.679,1.679,0,0,0-1.089.3,1.579,1.579,0,0,0-.474.994,12.274,12.274,0,0,0-.115,1.9H.418v-4.113H9.605v4.113h-.92a13.03,13.03,0,0,0-.108-1.9,1.553,1.553,0,0,0-.467-.994,1.7,1.7,0,0,0-1.1-.3H6.236v17.1H7.819V3.8Zm8.294,0v-.92h1.38V-15.58h-1.38v-.92h3.816v7.55A1.63,1.63,0,0,1,14.7-9.5a2.9,2.9,0,0,1,.825-.71,2.416,2.416,0,0,1,1.279-.325,2.649,2.649,0,0,1,1.38.379,2.651,2.651,0,0,1,1.028,1.333,7.342,7.342,0,0,1,.392,2.7v9H21V3.8H16.14v-.92h1.028V-5.892a7,7,0,0,0-.284-2.395.945.945,0,0,0-.893-.69,1.073,1.073,0,0,0-.764.359,2.7,2.7,0,0,0-.589.961,4.179,4.179,0,0,0-.257,1.346V2.875H15.45V3.8Zm15.506.284A2.92,2.92,0,0,1,24.3,3.525a4.288,4.288,0,0,1-1.265-1.549,8.6,8.6,0,0,1-.758-2.348,16.238,16.238,0,0,1-.25-2.95,13.433,13.433,0,0,1,.338-3.213,7.2,7.2,0,0,1,.92-2.239,4.224,4.224,0,0,1,1.292-1.312,2.763,2.763,0,0,1,1.455-.433,2.57,2.57,0,0,1,1.556.494,3.956,3.956,0,0,1,1.137,1.346,7.344,7.344,0,0,1,.7,1.955,11.1,11.1,0,0,1,.237,2.334v.562q0,.277-.027.548H24.3v-.907h3a29.069,29.069,0,0,0-.129-3.01,6.15,6.15,0,0,0-.4-1.793q-.271-.6-.744-.6-.446,0-.8.6A5.522,5.522,0,0,0,24.685-7.1a23.484,23.484,0,0,0-.2,3.389q0,1.542.088,2.794a14.374,14.374,0,0,0,.291,2.145,3.592,3.592,0,0,0,.562,1.367,1.1,1.1,0,0,0,.913.474,1.923,1.923,0,0,0,1.4-.494,3.1,3.1,0,0,0,.71-.967l.785.487A2.946,2.946,0,0,1,28.1,3.464,3.412,3.412,0,0,1,26.071,4.08Z" transform="translate(640.207 29)" fill="#374151"/><g transform="translate(618.128 28.367)"><path d="M1.128,7.729V5.574H4.346V-31.445H1.128V-33.6H14.176a9.439,9.439,0,0,1,3.114.561,8.588,8.588,0,0,1,3.011,1.86,9.384,9.384,0,0,1,2.273,3.5,14.867,14.867,0,0,1,.871,5.447,17.683,17.683,0,0,1-.886,5.86,13.292,13.292,0,0,1-2.3,4.207,10.167,10.167,0,0,1-3.026,2.524,6.611,6.611,0,0,1-3.055.841H11.342V5.574H14.53V7.729ZM11.342-10.958h1.122A2.273,2.273,0,0,0,14.339-12.3a11.661,11.661,0,0,0,1.269-3.867,34.57,34.57,0,0,0,.458-6.067,29.02,29.02,0,0,0-.4-5.388,6.616,6.616,0,0,0-1.151-2.923,2.264,2.264,0,0,0-1.786-.9H11.342Z" transform="translate(-1.128 33.6)" fill="#92400e"/><path d="M17.5,6.612a4.327,4.327,0,0,1-3.12-.97A4.69,4.69,0,0,1,13.1,2.955a24.654,24.654,0,0,1-.28-3.938q0-1.239.035-2.384t.035-1.916a12.088,12.088,0,0,0-.245-2.793,1.989,1.989,0,0,0-.888-1.332,3.668,3.668,0,0,0-1.788-.362h-1V4.509h2.36V6.215H.95V4.509H3.427V-24.8H.95V-26.5H11.42a8.546,8.546,0,0,1,3.693.783,5.982,5.982,0,0,1,2.641,2.454,8.537,8.537,0,0,1,.982,4.359,9.438,9.438,0,0,1-.6,3.506,7.365,7.365,0,0,1-1.578,2.489,7.694,7.694,0,0,1-2.115,1.542,7.732,7.732,0,0,1-2.232.713,8.754,8.754,0,0,1,3.891.9A4.114,4.114,0,0,1,18-7.363a14.079,14.079,0,0,1,.526,4.253q0,1.215-.07,2.431t-.07,2.267q0,.631.047,1.344a4.335,4.335,0,0,0,.222,1.192q.175.479.479.479a.433.433,0,0,0,.409-.234,1.311,1.311,0,0,0,.152-.538h1.589a3.047,3.047,0,0,1-.608,1.589,2.9,2.9,0,0,1-1.285.9A5.493,5.493,0,0,1,17.5,6.612ZM8.966-11.477h1.192a1.9,1.9,0,0,0,1.624-.982,7.482,7.482,0,0,0,.97-2.653,19.331,19.331,0,0,0,.327-3.7,15.015,15.015,0,0,0-.3-3.26,4.415,4.415,0,0,0-.935-2.033,2.089,2.089,0,0,0-1.613-.689H8.966ZM22.918,6.215V4.509h2.267V-24.8H22.918V-26.5H33.061V-24.8H30.747V4.509h2.314V6.215Zm12.246,0V4.509h2.173V-24.8H35.164V-26.5h8.484L49.818-6.5h-.3V-24.8H47.457V-26.5h5.889V-24.8h-2.08V6.215H47.808L38.717-23.162h.374V4.509h2.15V6.215Zm28.512.467q-3.809,0-6.182-4.347T55.123-10.1a35.084,35.084,0,0,1,.538-6.17A22.979,22.979,0,0,1,57.3-21.713a11.1,11.1,0,0,1,2.746-3.868,5.7,5.7,0,0,1,3.868-1.437,4.076,4.076,0,0,1,2.723,1,6.962,6.962,0,0,1,1.846,2.489,7.122,7.122,0,0,1,.666,2.933,4.283,4.283,0,0,1-.526,2.232,1.8,1.8,0,0,1-1.671.876,2.077,2.077,0,0,1-1.788-.713,3.137,3.137,0,0,1-.526-1.9,2.493,2.493,0,0,1,.351-1.367q.351-.549.713-1.075a2.19,2.19,0,0,0,.362-1.274,1.518,1.518,0,0,0-.327-1.1,1.139,1.139,0,0,0-.841-.327,1.79,1.79,0,0,0-1.5.993A9.638,9.638,0,0,0,62.321-21.6a28.012,28.012,0,0,0-.7,3.657q-.257,2-.374,4.031t-.117,3.763q0,2.547.14,4.838t.421,4.172a22.407,22.407,0,0,0,.7,3.249,7.4,7.4,0,0,0,.958,2.115,1.51,1.51,0,0,0,1.215.748,2.042,2.042,0,0,0,1.414-.491,3.73,3.73,0,0,0,.911-1.332,11.994,11.994,0,0,0,.619-1.893l1.449.841A10.4,10.4,0,0,1,67.8,4.462a5.3,5.3,0,0,1-1.683,1.624A4.669,4.669,0,0,1,63.677,6.682Zm8.39-.467V4.509h2.267V-24.8H72.067V-26.5H82.209V-24.8H79.9V4.509h2.314V6.215Zm12.667,0V4.509h2.547V-24.8H84.733V-26.5h10.33a7.473,7.473,0,0,1,2.466.444,6.8,6.8,0,0,1,2.384,1.472,7.429,7.429,0,0,1,1.8,2.769,11.769,11.769,0,0,1,.689,4.312,14,14,0,0,1-.7,4.639,10.523,10.523,0,0,1-1.823,3.33,8.049,8.049,0,0,1-2.4,2,5.234,5.234,0,0,1-2.419.666H92.82V4.509h2.524V6.215ZM92.82-8.579h.888a1.8,1.8,0,0,0,1.484-1.063,9.232,9.232,0,0,0,1-3.062,27.368,27.368,0,0,0,.362-4.8,22.975,22.975,0,0,0-.315-4.265,5.237,5.237,0,0,0-.911-2.314,1.792,1.792,0,0,0-1.414-.713h-1.1ZM104.645,6.215V4.509h2.1V-24.8h-2.1V-26.5h9.839V-24.8h-2.173V4.509h1.239a2,2,0,0,0,1.6-.771,5.2,5.2,0,0,0,.97-2.15,14.2,14.2,0,0,0,.327-3.249h1.706V6.215Zm16.079,0V4.509h2.22V-24.8h-2.22V-26.5h14.49V-18.7h-1.683a12.992,12.992,0,0,0-.362-3.272,4.315,4.315,0,0,0-1.133-2.1,2.817,2.817,0,0,0-2.01-.724h-1.449v13.789h3.88v-2.2h1.659v6.03h-1.659V-9.3h-3.88V4.509h1.449a2.725,2.725,0,0,0,2-.748,4.616,4.616,0,0,0,1.133-2.138,12.741,12.741,0,0,0,.374-3.284h1.683V6.215Zm17.364,0V4.509h2.2V-24.8h-2.2V-26.5h9.021a6.234,6.234,0,0,1,4.288,1.811,12.628,12.628,0,0,1,3.178,5.375,28.218,28.218,0,0,1,1.2,8.916,29.4,29.4,0,0,1-1.215,9.079,13.617,13.617,0,0,1-3.19,5.621,6.043,6.043,0,0,1-4.265,1.916Zm7.853-1.706h.795q.911,0,1.718-1.659a18.193,18.193,0,0,0,1.309-4.978,56.722,56.722,0,0,0,.5-8.273,53.58,53.58,0,0,0-.479-7.736,20.472,20.472,0,0,0-1.227-4.943q-.748-1.718-1.589-1.718h-1.028Z" transform="translate(23.432 35.114)" fill="#92400e"/></g><path d="M.714,4.573V3.4h1.6V-18.365H.714v-1.171h9.867V-14.3H9.41a11.033,11.033,0,0,0-.2-2.3,2.5,2.5,0,0,0-.663-1.335,1.829,1.829,0,0,0-1.292-.431H5.432v10.3h3.2v-1.67H9.772v4.443H8.635V-6.913h-3.2V3.4H7.258a1.76,1.76,0,0,0,1.274-.448A2.661,2.661,0,0,0,9.2,1.594,10.71,10.71,0,0,0,9.41-.714h1.171V4.573Zm11.744,0V3.4h1.584V-18.365H12.458v-1.171h5.269l5.046,17.2h-.155V-18.365H21.051v-1.171h4.288v1.171H23.807V4.573H21.568L15.059-17.486h.189V3.4h1.67V4.573Zm20.182.344A4.086,4.086,0,0,1,29.662,3.54,9.612,9.612,0,0,1,27.535-.585a25.447,25.447,0,0,1-.784-6.862,22.157,22.157,0,0,1,.9-6.8,10.44,10.44,0,0,1,2.333-4.2,4.187,4.187,0,0,1,2.945-1.429,3.367,3.367,0,0,1,2.075.637,4.051,4.051,0,0,1,1.3,1.67,5.569,5.569,0,0,1,.448,2.239A2.449,2.449,0,0,1,36.4-13.9a1.184,1.184,0,0,1-1.025.491,1.179,1.179,0,0,1-1.033-.491A2.061,2.061,0,0,1,34-15.11a1.68,1.68,0,0,1,.189-.835q.189-.336.37-.68a1.8,1.8,0,0,0,.181-.844,1.212,1.212,0,0,0-.422-.887,1.491,1.491,0,0,0-1.076-.4A1.816,1.816,0,0,0,31.711-17.7a9.615,9.615,0,0,0-1.033,2.764,28.15,28.15,0,0,0-.585,3.685Q29.9-9.272,29.9-7.447a45.067,45.067,0,0,0,.224,4.779,23.115,23.115,0,0,0,.611,3.5A7.163,7.163,0,0,0,31.633,3a1.383,1.383,0,0,0,1.076.732,1.51,1.51,0,0,0,.7-.146,1.454,1.454,0,0,0,.422-.3V-5.157H32.4V-6.328h5.786v1.171h-1.5v9.73h-1.1q-.017-.052-.172-.146a.749.749,0,0,0-.4-.095,1.267,1.267,0,0,0-.568.146,6.061,6.061,0,0,1-.715.293A3.4,3.4,0,0,1,32.641,4.917Zm7.284-.344V3.4h1.636V-18.365H39.925v-1.171h6.389v1.171h-1.67V3.4h1.67V4.573Zm8.042,0V3.4h1.584V-18.365H47.967v-1.171h5.269l5.046,17.2h-.155V-18.365H56.56v-1.171h4.288v1.171H59.315V4.573H57.076L50.567-17.486h.189V3.4h1.67V4.573Zm14.31,0V3.4h1.6V-18.365h-1.6v-1.171h9.867V-14.3H70.973a11.033,11.033,0,0,0-.2-2.3,2.5,2.5,0,0,0-.663-1.335,1.829,1.829,0,0,0-1.292-.431H67v10.3h3.2v-1.67h1.137v4.443H70.2V-6.913H67V3.4h1.825A1.76,1.76,0,0,0,70.1,2.954a2.661,2.661,0,0,0,.672-1.36,10.71,10.71,0,0,0,.207-2.308h1.171V4.573Zm12.072,0V3.4h1.6V-18.365h-1.6v-1.171h9.867V-14.3H83.045a11.032,11.032,0,0,0-.2-2.3,2.5,2.5,0,0,0-.663-1.335,1.829,1.829,0,0,0-1.292-.431H79.067v10.3h3.2v-1.67h1.137v4.443H82.27V-6.913h-3.2V3.4h1.825a1.76,1.76,0,0,0,1.274-.448,2.661,2.661,0,0,0,.672-1.36,10.709,10.709,0,0,0,.207-2.308h1.171V4.573Zm23.385.276a2.51,2.51,0,0,1-1.9-.646,3.212,3.212,0,0,1-.784-1.774,16.939,16.939,0,0,1-.172-2.54q0-.9.034-1.774t.034-1.567a9.885,9.885,0,0,0-.215-2.368,1.672,1.672,0,0,0-.8-1.128,3.732,3.732,0,0,0-1.7-.31h-.9V3.4h1.688V4.573H86.506V3.4h1.756V-18.365H86.506v-1.171h6.8a5.5,5.5,0,0,1,2.54.577,4.1,4.1,0,0,1,1.774,1.808,6.913,6.913,0,0,1,.646,3.212,8.093,8.093,0,0,1-.379,2.609,5.537,5.537,0,0,1-1.007,1.843,4.627,4.627,0,0,1-1.4,1.128,4.789,4.789,0,0,1-1.55.5,4.848,4.848,0,0,1,2.574.654,3.085,3.085,0,0,1,1.223,1.782,11.135,11.135,0,0,1,.336,2.988q0,.878-.043,1.774t-.043,1.688q0,.534.043,1.128A4.659,4.659,0,0,0,98.19,3.17q.129.422.37.422a.322.322,0,0,0,.293-.181.952.952,0,0,0,.121-.4h1.068a1.932,1.932,0,0,1-.362,1.042,1.86,1.86,0,0,1-.809.6A3.064,3.064,0,0,1,97.734,4.849ZM91.328-8.411h1.188a1.8,1.8,0,0,0,1.49-.74,4.925,4.925,0,0,0,.852-1.972,12.606,12.606,0,0,0,.276-2.747A10.9,10.9,0,0,0,94.9-16.29a3.08,3.08,0,0,0-.775-1.541,2.032,2.032,0,0,0-1.49-.534H91.328Z" transform="translate(698.087 93.414)" fill="#374151"/></g></svg>